<svg xmlns="http://www.w3.org/2000/svg" width="36" height="36" viewBox="0 0 200 310">
  <defs>
    <style>
      .cls-1 {
        fill: #f5b726;
        fill-rule: evenodd;
      }
    </style>
  </defs>
  <path id="Forma_1" data-name="Forma 1" class="cls-1" d="M193.365,82.9s-27.387,16.859-25.822,45.658c-0.211,4.752-.651,35.313,32.935,51.865-2.939,5.908-26.639,62.055-52.3,64.04-3.55.211-19.772-2.312-25.284-4.894-6.1-2.582-20.5-6.7-34.13-1.194-5.537,1.765-18.992,7.637-27.794,6.565C57.558,244.358,11.293,226.832,0,136.317c0.364-12.726,1.786-69.912,57.5-76.276,5.031,0.024,15.01-.329,44.232,10.445,0.144,0.152,16.411-4.822,20.263-6.088,4.278-1.266,14.73-6.473,27.376-5.073C161.31,61.008,176.344,61.8,193.365,82.9ZM99.582,56.52s-4.575-45.29,49.372-57.3C149.011,0.25,149.208,56.249,99.582,56.52Z"/>
</svg>
