<svg xmlns="http://www.w3.org/2000/svg" width="36" height="36" viewBox="0 0 512 512">
  <defs>
    <style>
      .cls-1 {
        fill: #ffbf00;
      }

      .cls-1, .cls-2 {
        fill-rule: evenodd;
      }

      .cls-2 {
        fill: #f8f8f8;
      }
    </style>
  </defs>
  <path id="Forma_1" data-name="Forma 1" class="cls-1" d="M471,453s1.918,49.813-55,59c-10.873-.074-322,0-322,0s-42.689-4.131-53-51c0.074-6.648,0-410,0-410S48.68,1.475,103,0c52.924,0.121,312,0,312,0s46.771,2.343,56,52c-0.422,13.465,0,333,0,333s-15.945,47.354-57,47-316,0-316,0-16.819,5.122-17,17c-0.373,3.8-1.517,20.466,18,23,19.133,0.034,324,0,324,0S451.2,467.74,471,453Z"/>
  <path id="Forma_3" data-name="Forma 3" class="cls-2" d="M100,40s-19.856.7-20,21,0,335,0,335a64.06,64.06,0,0,1,21-4c11.083-.027,314,0,314,0s17.64-.947,17-19V61s-0.555-20.748-20-21C392.555,40.249,100,40,100,40Z"/>
  <path id="Forma_2" data-name="Forma 2" class="cls-1" d="M236,332h39V206h66V166H275V101H236v65H170v40h66V332Z"/>
</svg>
