<svg width="60" height="60" viewBox="0 0 60 60" fill="none" xmlns="http://www.w3.org/2000/svg">
<path d="M24 60V48C24 46.4087 24.6321 44.8826 25.7574 43.7574C26.8826 42.6321 28.4087 42 30 42C31.5913 42 33.1174 42.6321 34.2426 43.7574C35.3679 44.8826 36 46.4087 36 48V60H48V30C47.9999 29.4823 47.8659 28.9735 47.6109 28.523C47.3559 28.0725 46.9887 27.6956 46.545 27.429L33 19.302V12H39V6H33V0H27V6H21V12H27V19.302L13.455 27.429C13.0113 27.6956 12.6441 28.0725 12.3891 28.523C12.1341 28.9735 12.0001 29.4823 12 30V60H24ZM3 60H9V35.646L1.659 39.318C1.16032 39.5664 0.740845 39.9491 0.44776 40.4229C0.154676 40.8967 -0.000391802 41.4429 7.43434e-07 42V57C7.43434e-07 57.7956 0.316071 58.5587 0.87868 59.1213C1.44129 59.6839 2.20435 60 3 60ZM58.341 39.315L51 35.646V60H57C57.7956 60 58.5587 59.6839 59.1213 59.1213C59.6839 58.5587 60 57.7956 60 57V42C60 40.863 59.358 39.825 58.341 39.315Z" fill="#EDE7E7"/>
</svg>
