<svg xmlns="http://www.w3.org/2000/svg" width="782.292" height="799.987" viewBox="0 0 840 859">
  <defs>
    <style>
      .cls-1 {
        fill: #fcffff;
      }

      .cls-1, .cls-2 {
        fill-rule: evenodd;
      }

      .cls-2 {
        fill: #ffbe0f;
      }
    </style>
  </defs>
  <path id="Forma_3" data-name="Forma 3" class="cls-1" d="M412,3S734.674-8.249,737,338c-0.49,76.915-34.4,137.2-57,171-13.252,20.387-193.214,287.789-200,298s-23,33-23,33-14.689,15.965-34,16c-12.494.54-30.159-5.038-39-15S220,599,220,599l-49-75s-67.247-93.85-71-178C96.9,270.291,128.971,21.829,412,3Z"/>
  <path id="Forma_1" data-name="Forma 1" class="cls-2" d="M626.465,637H486.2s-46.79-97.188-66.44-97.411c-11.89-.223-62.8,91.529-73.823,92.983s-125.5,0-125.5,0L154,517.45s130.483-57.289,134.357-63.464,43.294-49.351,54.629-171.207c18.32-116.425,18.7-147.606,32.482-163.828,14.554-8.462,24.627-11.491,39.864,4.428,3.017,1.212,6.182-3.258,10.336-7.379s35.552-7.4,44.293,20.662,36.227,259.088,51.676,290.757c16.921,22.1,48.615,37.709,82.682,53.133,34.066,14.918,82.133,40.106,82.681,45.754S626.465,637,626.465,637Z"/>
</svg>
